# xmcd CD database file
#
# Track frame offsets:
#	150
#	10070
#	23107
#	40737
#	53615
#	64177
#	74935
#	90432
#	101627
#	112912
#	124052
#	143587
#	152405
#	161552
#	179095
#	188242
#	203885
#	209855
#
# Disc length: 2977 seconds
#
# Revision: 0
# Processed by: cddbd v1.5.2PL0 Copyright (c) Steve Scherf et al.
# Submitted via: CDex 1.70beta2
#
DISCID=fd0b9f12
DTITLE=Errol Dixon - Living With The Blues
DYEAR=1900
DGENRE=Blues
TTITLE0=Back stroke
TTITLE1=Lonley blues
TTITLE2=Lucky old sun
TTITLE3=Tell me what they are saying isn't true
TTITLE4=The Fly
TTITLE5=Nobody knows the trouble I've seen
TTITLE6=The way I feel
TTITLE7=Jump for joy
TTITLE8=Living with the blues
TTITLE9=Feeling blue
TTITLE10=A fool in love
TTITLE11=Up and down
TTITLE12=Jambalaya
TTITLE13=The spirit of Montegobay
TTITLE14=Scratch my bag
TTITLE15=Eye of the sparrow
TTITLE16=Rock my soul
TTITLE17=I can't live without you
EXTD=
EXTT0=
EXTT1=
EXTT2=
EXTT3=
EXTT4=
EXTT5=
EXTT6=
EXTT7=
EXTT8=
EXTT9=
EXTT10=
EXTT11=
EXTT12=
EXTT13=
EXTT14=
EXTT15=
EXTT16=
EXTT17=
PLAYORDER=
